<svg width="34" height="34" viewBox="0 0 34 34" fill="none" xmlns="http://www.w3.org/2000/svg">
<circle cx="17" cy="17" r="17" fill="#2980B9"/>
<path fill-rule="evenodd" clip-rule="evenodd" d="M16.3125 12.6875C16.6906 12.6875 17 12.9969 17 13.375V14.2344C17 14.365 16.9725 14.4956 16.9244 14.6125L15.3706 18.2494C15.2125 18.6138 14.8481 18.875 14.4219 18.875H9.78125C9.21063 18.875 8.75 18.4144 8.75 17.8438V13.375C8.75 13.0931 8.86687 12.8319 9.0525 12.6463L12.4488 9.25L12.9919 9.79313C13.1294 9.9375 13.2188 10.13 13.2188 10.3431L13.205 10.5013L12.7513 12.6875H16.3125ZM14.195 17.5L15.625 14.1519V14.0625H11.06L11.4519 12.1925L10.125 13.5194V17.5H14.195ZM24.2188 16.125H19.5781C19.1519 16.125 18.7875 16.3862 18.6294 16.7506L17.0756 20.3875C17.0275 20.5044 17 20.635 17 20.7656V21.625C17 22.0031 17.3094 22.3125 17.6875 22.3125H21.2488L20.795 24.4987L20.7813 24.6637C20.7813 24.8769 20.8706 25.0694 21.0081 25.2137L21.5513 25.75L24.9475 22.3537C25.1331 22.1681 25.25 21.9069 25.25 21.625V17.1562C25.25 16.5856 24.7894 16.125 24.2188 16.125ZM22.5482 22.8075L23.875 21.4806V17.5H19.805L18.375 20.8481V20.9375H22.94L22.5482 22.8075Z" fill="#F1F2F6"/>
</svg>
