<svg width="18" height="19" viewBox="0 0 18 19" fill="none" xmlns="http://www.w3.org/2000/svg">
<g id="thumbs_up_down_24px">
<path id="icon/action/thumbs_up_down_24px" fill-rule="evenodd" clip-rule="evenodd" d="M8.3125 3.6875C8.69063 3.6875 9 3.99688 9 4.375V5.23438C9 5.365 8.9725 5.49563 8.92438 5.6125L7.37063 9.24938C7.2125 9.61375 6.84812 9.875 6.42188 9.875H1.78125C1.21063 9.875 0.75 9.41438 0.75 8.84375V4.375C0.75 4.09313 0.866875 3.83188 1.0525 3.64625L4.44875 0.25L4.99188 0.793125C5.12937 0.9375 5.21875 1.13 5.21875 1.34312L5.205 1.50125L4.75125 3.6875H8.3125ZM6.19503 8.5L7.62503 5.15187V5.0625H3.06003L3.45191 3.1925L2.12503 4.51937V8.5H6.19503ZM16.2188 7.125H11.5781C11.1519 7.125 10.7875 7.38625 10.6294 7.75062L9.07563 11.3875C9.0275 11.5044 9 11.635 9 11.7656V12.625C9 13.0031 9.30938 13.3125 9.6875 13.3125H13.2488L12.795 15.4987L12.7813 15.6637C12.7813 15.8769 12.8706 16.0694 13.0081 16.2137L13.5513 16.75L16.9475 13.3537C17.1331 13.1681 17.25 12.9069 17.25 12.625V8.15625C17.25 7.58562 16.7894 7.125 16.2188 7.125ZM14.5482 13.8075L15.875 12.4806V8.5H11.805L10.375 11.8481V11.9375H14.94L14.5482 13.8075Z" fill="#F1F2F6"/>
</g>
</svg>
