<svg width="32" height="47" viewBox="0 0 32 47" fill="none" xmlns="http://www.w3.org/2000/svg">
<path d="M0.568512 16.4361C0.568512 7.62451 7.37353 0.5 15.6849 0.5C23.9963 0.5 30.8014 7.62451 30.8014 16.4361C30.8014 19.4218 29.8532 22.799 28.4012 26.2102C26.9518 29.6153 25.0153 33.02 23.0722 36.0511C21.13 39.0808 19.1869 41.7286 17.7291 43.6191C17.0003 44.5642 16.3934 45.3193 15.969 45.8377C15.8625 45.9679 15.7675 46.0831 15.6849 46.1826C15.6024 46.0831 15.5074 45.9679 15.4008 45.8377C14.9765 45.3193 14.3695 44.5642 13.6408 43.6191C12.183 41.7286 10.2399 39.0808 8.29766 36.0511C6.35459 33.02 4.41805 29.6153 2.96863 26.2102C1.51664 22.799 0.568512 19.4218 0.568512 16.4361Z" fill="#C0392B" stroke="white"/>
<path d="M14.8174 13.3054H13.0822V7.82666H11.347V13.3054H9.61187V7.82666H7.87671V13.3054C7.87671 14.9646 9.3169 16.3108 11.1301 16.4126V23.4801H13.2991V16.4126C15.1123 16.3108 16.5525 14.9646 16.5525 13.3054V7.82666H14.8174V13.3054ZM19.1553 10.9574V17.2187H21.3242V23.4801H23.4932V7.82666C21.0987 7.82666 19.1553 9.57985 19.1553 10.9574Z" fill="white"/>
</svg>
