<svg width="15" height="14" viewBox="0 0 15 14" fill="none" xmlns="http://www.w3.org/2000/svg">
<path fill-rule="evenodd" clip-rule="evenodd" d="M9.93717 8.80503H10.6076L14.8421 12.8073L13.5777 14L9.33466 10.0057V9.37336L9.10553 9.14923C8.13812 9.93368 6.88219 10.4059 5.51593 10.4059C2.46944 10.4059 0 8.07662 0 5.20297C0 2.32933 2.46944 0 5.51593 0C8.56243 0 11.0319 2.32933 11.0319 5.20297C11.0319 6.49171 10.5312 7.67639 9.69956 8.58891L9.93717 8.80503ZM1.69728 5.20301C1.69728 7.19615 3.40298 8.80507 5.516 8.80507C7.62903 8.80507 9.33473 7.19615 9.33473 5.20301C9.33473 3.20987 7.62903 1.60095 5.516 1.60095C3.40298 1.60095 1.69728 3.20987 1.69728 5.20301Z" fill="#BDBDBD"/>
</svg>
